<?xml version="1.0" encoding="utf-8"?>
<!-- Generator: Adobe Illustrator 19.1.1, SVG Export Plug-In . SVG Version: 6.00 Build 0)  -->
<svg version="1.1" id="Layer_1" xmlns="http://www.w3.org/2000/svg" xmlns:xlink="http://www.w3.org/1999/xlink" x="0px" y="0px"
	 viewBox="0 0 14.003 30" style="enable-background:new 0 0 14.003 30;" xml:space="preserve">
<style type="text/css">
	.st0{fill:#3F59A6;}
</style>
<g id="_x23_020201ff_4_">
	<path class="st0" d="M4.614,1.546c1.17-1.114,2.834-1.49,4.404-1.537c1.66-0.015,3.32-0.006,4.98-0.005
		c0.007,1.751,0.007,3.503-0.001,5.254c-1.073-0.002-2.146,0.003-3.219-0.002c-0.68-0.042-1.379,0.473-1.503,1.148
		C9.259,7.575,9.269,8.748,9.27,9.92c1.574,0.006,3.147-0.002,4.721,0.004c-0.115,1.695-0.325,3.383-0.572,5.064
		c-1.39,0.013-2.781-0.001-4.17,0.007c-0.012,5,0.006,10-0.01,15C7.174,30.003,5.108,29.99,3.044,30
		c-0.039-5.001,0.003-10.004-0.021-15.005C2.015,14.985,1.007,15.002,0,14.987c0.004-1.681,0.001-3.362,0.002-5.042
		c1.006-0.012,2.014,0.003,3.02-0.007c0.031-1.634-0.031-3.27,0.032-4.903C3.155,3.741,3.648,2.439,4.614,1.546z"/>
</g>
</svg>
