<?xml version="1.0" encoding="utf-8"?>
<!-- Generator: Adobe Illustrator 19.1.1, SVG Export Plug-In . SVG Version: 6.00 Build 0)  -->
<svg version="1.1" id="Layer_1" xmlns="http://www.w3.org/2000/svg" xmlns:xlink="http://www.w3.org/1999/xlink" x="0px" y="0px"
	 viewBox="0 0 47.228 30" style="enable-background:new 0 0 47.228 30;" xml:space="preserve">
<style type="text/css">
	.st0{fill:#3F59A6;}
</style>
<g>
	<g>
		<path class="st0" d="M15,12.03v5.941c0,0,5.763-0.008,8.109-0.008c-1.271,3.851-3.247,5.948-8.109,5.948
			c-4.921,0-8.762-3.99-8.762-8.911c0-4.921,3.841-8.911,8.762-8.911c2.602,0,4.283,0.914,5.824,2.189
			c1.234-1.234,1.131-1.41,4.27-4.374C22.429,1.479,18.887,0,15,0C6.716,0,0,6.716,0,15c0,8.284,6.716,15,15,15
			c12.383,0,15.409-10.782,14.406-17.97C26.475,12.03,15,12.03,15,12.03z M42.03,12.327V7.129h-3.713v5.198H32.97v3.713h5.346v5.346
			h3.713V16.04h5.198v-3.713H42.03z"/>
	</g>
</g>
</svg>
