<?xml version="1.0" encoding="utf-8"?>
<!-- Generator: Adobe Illustrator 19.1.1, SVG Export Plug-In . SVG Version: 6.00 Build 0)  -->
<svg version="1.1" id="Layer_1" xmlns="http://www.w3.org/2000/svg" xmlns:xlink="http://www.w3.org/1999/xlink" x="0px" y="0px"
	 viewBox="0 0 24.812 30" style="enable-background:new 0 0 24.812 30;" xml:space="preserve">
<style type="text/css">
	.st0{fill:#3F59A6;}
</style>
<path class="st0" d="M15.812,24.361V20.82c0-0.752-0.218-1.128-0.654-1.128c-0.256,0-0.504,0.12-0.744,0.361v5.053
	c0.241,0.241,0.489,0.361,0.744,0.361C15.594,25.466,15.812,25.098,15.812,24.361L15.812,24.361z M19.962,21.609h1.489v-0.767
	c0-0.767-0.248-1.15-0.744-1.15s-0.744,0.383-0.744,1.15V21.609z M7.083,15.609v1.579H5.278v9.541H3.609v-9.541H1.85v-1.579H7.083
	L7.083,15.609z M11.617,18.451v8.278h-1.511v-0.902c-0.586,0.677-1.158,1.015-1.714,1.015c-0.496,0-0.812-0.211-0.947-0.632
	c-0.09-0.241-0.135-0.647-0.135-1.218v-6.541h1.489v6.09c0,0.361,0.008,0.556,0.023,0.586c0.015,0.226,0.128,0.338,0.338,0.338
	c0.301,0,0.617-0.233,0.947-0.699v-6.316L11.617,18.451L11.617,18.451z M17.301,20.955v3.293c0,0.782-0.053,1.331-0.158,1.647
	c-0.18,0.632-0.579,0.947-1.195,0.947c-0.526,0-1.038-0.308-1.534-0.925v0.812h-1.511v-11.12h1.511v3.632
	c0.481-0.602,0.992-0.902,1.534-0.902c0.617,0,1.015,0.316,1.195,0.947C17.248,19.601,17.301,20.158,17.301,20.955z M22.962,23.865
	v0.203c0,0.436-0.015,0.759-0.045,0.97c-0.045,0.331-0.158,0.632-0.338,0.902c-0.406,0.602-1.008,0.902-1.805,0.902
	c-0.782,0-1.391-0.286-1.827-0.857c-0.316-0.406-0.474-1.053-0.474-1.94v-2.91c0-0.887,0.15-1.534,0.451-1.94
	c0.436-0.571,1.038-0.857,1.805-0.857s1.353,0.286,1.759,0.857c0.316,0.421,0.474,1.068,0.474,1.94v1.714h-3v1.466
	c0,0.767,0.256,1.15,0.767,1.15c0.361,0,0.586-0.195,0.677-0.586c0-0.015,0.004-0.068,0.011-0.158
	c0.008-0.09,0.011-0.214,0.011-0.372v-0.485L22.962,23.865L22.962,23.865z M12.789,5.278v3.519c0,0.767-0.241,1.15-0.722,1.15
	c-0.481,0-0.722-0.383-0.722-1.15V5.278c0-0.782,0.241-1.173,0.722-1.173C12.549,4.105,12.789,4.496,12.789,5.278z M24.812,21.361
	c0-2.662-0.143-4.617-0.429-5.865c-0.15-0.662-0.474-1.214-0.97-1.658c-0.496-0.444-1.068-0.703-1.714-0.778
	c-2.045-0.226-5.143-0.338-9.293-0.338c-4.135,0-7.226,0.113-9.271,0.338c-0.662,0.075-1.237,0.335-1.726,0.778
	c-0.489,0.444-0.808,0.996-0.959,1.658C0.15,16.805,0,18.759,0,21.361c0,2.647,0.15,4.602,0.451,5.865
	c0.15,0.647,0.47,1.195,0.959,1.647s1.056,0.714,1.703,0.789C5.173,29.887,8.271,30,12.406,30c4.135,0,7.233-0.113,9.293-0.338
	c0.647-0.075,1.214-0.338,1.703-0.789c0.489-0.451,0.808-1,0.959-1.647C24.662,25.962,24.812,24.008,24.812,21.361z M7.782,6.677
	L9.812,0H8.12L6.97,4.398L5.774,0H4.015l0.541,1.556c0,0,0.173,0.519,0.519,1.556C5.602,4.662,5.947,5.85,6.113,6.677v4.534h1.669
	L7.782,6.677L7.782,6.677z M14.301,8.504V5.571c0-0.872-0.158-1.526-0.474-1.962c-0.436-0.571-1.023-0.857-1.759-0.857
	c-0.767,0-1.353,0.286-1.759,0.857c-0.316,0.436-0.474,1.09-0.474,1.962v2.932c0,0.872,0.158,1.526,0.474,1.962
	c0.406,0.571,0.992,0.857,1.759,0.857c0.737,0,1.323-0.286,1.759-0.857C14.143,10.06,14.301,9.406,14.301,8.504z M18.383,11.211
	h1.511V2.865h-1.511v6.383c-0.331,0.466-0.647,0.699-0.947,0.699c-0.226,0-0.346-0.12-0.361-0.361
	C17.06,9.556,17.053,9.361,17.053,9V2.865h-1.511v6.609c0,0.556,0.045,0.97,0.135,1.241c0.165,0.406,0.489,0.609,0.97,0.609
	c0.541,0,1.12-0.338,1.737-1.015L18.383,11.211L18.383,11.211z"/>
</svg>
